<svg width="286" height="78" viewBox="0 0 286 78" fill="none" xmlns="http://www.w3.org/2000/svg">
<path fill-rule="evenodd" clip-rule="evenodd" d="M116.891 77.3608H124.357V47.4957H116.891V77.3608ZM117.8 42.3667C118.666 43.1891 119.661 43.6003 120.786 43.6003C121.912 43.6003 122.886 43.1891 123.708 42.3667C124.574 41.5011 125.007 40.5056 125.007 39.3802C125.007 38.2549 124.574 37.281 123.708 36.4586C122.886 35.593 121.912 35.1602 120.786 35.1602C119.661 35.1602 118.666 35.593 117.8 36.4586C116.978 37.281 116.566 38.2549 116.566 39.3802C116.566 40.5056 116.978 41.5011 117.8 42.3667ZM203.88 77.3631H196.414V36.4609H203.88V77.3631ZM261.979 47.8211C260.897 47.3883 259.599 47.1719 258.084 47.1719C257.002 47.1719 256.028 47.345 255.162 47.6913C254.296 48.0375 253.561 48.4054 252.955 48.795C252.219 49.2711 251.548 49.8121 250.942 50.4181L249.644 47.4965H244.125V77.3616H251.591V60.1567C251.591 58.3388 252.067 56.9105 253.02 55.8717C254.015 54.8329 255.162 54.3135 256.461 54.3135C257.759 54.3135 258.884 54.8329 259.837 55.8717C260.832 56.9105 261.33 58.3388 261.33 60.1567V77.3616H268.796V60.1567C268.796 58.3388 269.272 56.9105 270.224 55.8717C271.22 54.8329 272.367 54.3135 273.665 54.3135C274.964 54.3135 276.089 54.8329 277.042 55.8717C278.037 56.9105 278.535 58.3388 278.535 60.1567V77.3616H286.001V59.5075C286.001 55.4389 285.027 52.3658 283.079 50.2882C281.132 48.2107 278.535 47.1719 275.289 47.1719C273.99 47.1719 272.8 47.3883 271.718 47.8211C270.636 48.2107 269.705 48.6435 268.926 49.1196C268.017 49.6823 267.216 50.3315 266.524 51.0673C266.048 50.3315 265.42 49.6823 264.641 49.1196C263.948 48.6435 263.061 48.2107 261.979 47.8211ZM217.493 76.8418C218.965 77.4045 220.588 77.6858 222.363 77.6858C223.574 77.6858 224.7 77.5343 225.739 77.2313C226.777 76.8851 227.665 76.4955 228.4 76.0627C229.266 75.5866 230.067 75.0456 230.803 74.4396L232.101 77.3612H237.62V47.4961H230.153V64.0517C230.153 65.9995 229.569 67.5793 228.4 68.7912C227.275 69.9598 225.803 70.5442 223.986 70.5442C222.168 70.5442 220.674 69.9598 219.506 68.7912C218.38 67.5793 217.818 65.9995 217.818 64.0517V47.4961H210.352V65.0256C210.352 66.9733 210.633 68.7263 211.196 70.2845C211.802 71.8426 212.624 73.1844 213.663 74.3097C214.745 75.3918 216.022 76.2358 217.493 76.8418ZM169.774 76.8418C171.246 77.4045 172.869 77.6858 174.644 77.6858C175.856 77.6858 176.981 77.5343 178.02 77.2313C179.059 76.8851 179.946 76.4955 180.682 76.0627C181.547 75.5866 182.348 75.0456 183.084 74.4396L184.382 77.3612H189.901V47.4961H182.435V64.0517C182.435 65.9995 181.85 67.5793 180.682 68.7912C179.556 69.9598 178.085 70.5442 176.267 70.5442C174.449 70.5442 172.956 69.9598 171.787 68.7912C170.662 67.5793 170.099 65.9995 170.099 64.0517V47.4961H162.633V65.0256C162.633 66.9733 162.914 68.7263 163.477 70.2845C164.083 71.8426 164.905 73.1844 165.944 74.3097C167.026 75.3918 168.303 76.2358 169.774 76.8418ZM158.094 66.3245C157.748 67.7961 157.164 69.2244 156.341 70.6095C155.519 71.9512 154.502 73.1632 153.29 74.2452C152.078 75.284 150.693 76.128 149.135 76.7773C147.577 77.3832 145.91 77.6862 144.136 77.6862C142.101 77.6862 140.175 77.2967 138.357 76.5176C136.583 75.6952 135.003 74.5915 133.618 73.2064C132.276 71.8214 131.194 70.2199 130.372 68.4021C129.593 66.5409 129.203 64.5499 129.203 62.429C129.203 60.3082 129.593 58.3388 130.372 56.5209C131.194 54.6598 132.276 53.0367 133.618 51.6516C135.003 50.2666 136.583 49.1845 138.357 48.4054C140.175 47.5831 142.101 47.1719 144.136 47.1719C145.91 47.1719 147.577 47.4965 149.135 48.1457C150.693 48.7517 152.078 49.5957 153.29 50.6778C154.502 51.7166 155.519 52.9285 156.341 54.3135C157.164 55.6553 157.748 57.062 158.094 58.5336H150.628C150.282 57.7545 149.806 57.062 149.2 56.456C148.68 55.9366 148.009 55.4605 147.187 55.0277C146.365 54.5516 145.348 54.3135 144.136 54.3135C142.015 54.3135 140.24 55.0493 138.812 56.5209C137.384 57.9926 136.669 59.9619 136.669 62.429C136.669 64.8962 137.384 66.8655 138.812 68.3371C140.24 69.8087 142.015 70.5446 144.136 70.5446C145.348 70.5446 146.365 70.3281 147.187 69.8953C148.009 69.4625 148.68 68.9864 149.2 68.467C149.806 67.861 150.282 67.1469 150.628 66.3245H158.094ZM110.388 47.1719C110.735 47.1719 111.038 47.1935 111.297 47.2368C111.557 47.2801 111.795 47.3234 112.011 47.3666L112.661 47.4965V55.2874C112.444 55.2441 112.206 55.2008 111.947 55.1575C111.73 55.1143 111.449 55.071 111.103 55.0277C110.8 54.9844 110.453 54.9628 110.064 54.9628C108.246 54.9628 106.753 55.5687 105.584 56.7806C104.459 57.9493 103.896 59.5075 103.896 61.4552V77.3616H96.4297V47.4965H101.948L103.247 50.7427C103.766 50.0935 104.394 49.5091 105.13 48.9898C105.735 48.5136 106.471 48.1025 107.337 47.7562C108.246 47.3666 109.263 47.1719 110.388 47.1719ZM90.8325 47.2368C90.5728 47.1935 90.2698 47.1719 89.9235 47.1719C88.7982 47.1719 87.781 47.3666 86.8721 47.7562C86.0064 48.1025 85.2706 48.5136 84.6647 48.9898C83.9289 49.5091 83.3013 50.0935 82.7819 50.7427L81.4834 47.4965H75.9648V77.3616H83.4311V61.4552C83.4311 59.5075 83.9938 57.9493 85.1191 56.7806C86.2878 55.5687 87.781 54.9628 89.5989 54.9628C89.9884 54.9628 90.3347 54.9844 90.6377 55.0277C90.9839 55.071 91.2653 55.1143 91.4817 55.1575C91.7414 55.2008 91.9794 55.2441 92.1959 55.2874V47.4965L91.5466 47.3666C91.3302 47.3234 91.0922 47.2801 90.8325 47.2368ZM54.1985 77.6858C52.4239 77.6858 50.8008 77.4045 49.3292 76.8418C47.8575 76.2358 46.5807 75.3918 45.4986 74.3097C44.4598 73.1844 43.6375 71.8426 43.0315 70.2845C42.4688 68.7263 42.1875 66.9733 42.1875 65.0256V47.4961H49.6538V64.0517C49.6538 65.9995 50.2164 67.5793 51.3418 68.7912C52.5104 69.9598 54.0037 70.5442 55.8216 70.5442C57.6394 70.5442 59.111 69.9598 60.2364 68.7912C61.405 67.5793 61.9893 65.9995 61.9893 64.0517V47.4961H69.4556V77.3612H63.9371L62.6386 74.4396C61.9028 75.0456 61.1021 75.5866 60.2364 76.0627C59.5006 76.4955 58.6133 76.8851 57.5745 77.2313C56.5357 77.5343 55.4104 77.6858 54.1985 77.6858ZM8.76475 62.2972C8.11551 60.6525 7.79089 58.8563 7.79089 56.9085C7.79089 54.9608 8.11551 53.1862 8.76475 51.5848C9.41399 49.94 10.2796 48.5333 11.3617 47.3647C12.4438 46.1528 13.699 45.2222 15.1273 44.573C16.5989 43.9237 18.1571 43.5991 19.8018 43.5991C21.1869 43.5991 22.4421 43.8155 23.5674 44.2483C24.6928 44.6379 25.6667 45.1789 26.489 45.8714C27.3547 46.5207 28.0688 47.2781 28.6315 48.1438C29.1942 48.9661 29.6054 49.8318 29.8651 50.7407H37.9806C37.5045 48.793 36.7254 46.9319 35.6433 45.1573C34.5613 43.3827 33.2411 41.8461 31.6829 40.5477C30.1248 39.2059 28.3285 38.1455 26.2943 37.3664C24.3032 36.544 22.1391 36.1328 19.8018 36.1328C17.1183 36.1328 14.5646 36.6738 12.1408 37.7559C9.76025 38.7947 7.66104 40.2663 5.84317 42.1708C4.06858 44.0319 2.64025 46.2393 1.55818 48.793C0.519392 51.3034 0 54.0086 0 56.9085C0 59.8518 0.519392 62.5786 1.55818 65.089C2.64025 67.5994 4.06858 69.8068 5.84317 71.7112C7.66104 73.5724 9.76025 75.044 12.1408 76.1261C14.5646 77.1649 17.1183 77.6842 19.8018 77.6842C22.2257 77.6842 24.4547 77.2947 26.489 76.5156C28.5666 75.6932 30.3845 74.6328 31.9426 73.3343C33.5441 71.9926 34.8859 70.4344 35.9679 68.6598C37.05 66.8852 37.8291 65.024 38.3052 63.0763H30.1897C29.8434 63.9853 29.3673 64.8726 28.7614 65.7382C28.1987 66.5606 27.4629 67.318 26.5539 68.0106C25.6883 68.6598 24.6928 69.2008 23.5674 69.6337C22.4421 70.0232 21.1869 70.218 19.8018 70.218C18.1571 70.218 16.5989 69.8934 15.1273 69.2441C13.699 68.5949 12.4438 67.6859 11.3617 66.5173C10.2796 65.3054 9.41399 63.8987 8.76475 62.2972Z" fill="url(#paint0_linear_547_8176)"/>
<path d="M14.9758 12.6386C13.9834 12.0361 12.9191 11.5613 11.8079 11.2254C10.6611 10.8761 9.60421 10.5387 8.6373 10.2132C7.79088 9.94429 6.97849 9.57807 6.2164 9.12184C5.91292 8.94773 5.66252 8.69425 5.49202 8.38857C5.32153 8.08289 5.23738 7.73654 5.24858 7.38664C5.24858 6.68456 5.58482 6.03795 6.25729 5.44682C6.92977 4.85569 7.87123 4.55921 9.08168 4.55739C10.2921 4.55739 11.2345 4.88115 11.9088 5.52867C12.5831 6.17619 12.9193 7.0647 12.9175 8.19422H17.5521C17.5634 7.0944 17.3577 6.00316 16.9469 4.98301C16.5545 4.01621 15.9638 3.14254 15.213 2.4184C14.4439 1.68142 13.5356 1.10542 12.5413 0.724128C11.4361 0.307395 10.2626 0.101945 9.08168 0.118445C7.82504 0.0990495 6.57501 0.304157 5.39035 0.724128C4.37397 1.08569 3.43038 1.62622 2.60412 2.32018C1.84998 2.95755 1.24108 3.74926 0.818432 4.64197C0.408806 5.51316 0.198328 6.46476 0.202301 7.42757C0.202301 8.90995 0.525815 10.1022 1.17284 11.0044C1.81341 11.9051 2.63878 12.6585 3.59375 13.2143C4.58869 13.7894 5.65338 14.2341 6.76165 14.5375C7.90304 14.8595 8.959 15.1896 9.92954 15.5279C10.7821 15.8072 11.5956 16.1941 12.3505 16.6792C12.6572 16.8704 12.9083 17.1389 13.0787 17.4578C13.249 17.7767 13.3326 18.1349 13.321 18.4963C13.3159 18.906 13.2187 19.3094 13.0365 19.6764C12.8543 20.0434 12.5919 20.3646 12.2687 20.6162C11.5689 21.2219 10.5057 21.5247 9.07896 21.5247C7.76127 21.5247 6.7253 21.1682 5.97104 20.4552C5.59876 20.0998 5.30595 19.6695 5.11188 19.1927C4.9178 18.7158 4.82688 18.2033 4.8451 17.6887H0.000558527C-0.0124138 18.8297 0.200704 19.9619 0.627595 21.02C1.03232 22.0132 1.64493 22.9081 2.42419 23.6446C3.24212 24.4087 4.21067 24.9933 5.26766 25.3607C6.49466 25.7849 7.78642 25.9909 9.08441 25.9691C10.3836 25.9859 11.6756 25.7735 12.9012 25.3416C13.9624 24.9673 14.9484 24.4064 15.8128 23.6855C16.5845 23.0426 17.2219 22.2536 17.6884 21.3637C18.1222 20.5421 18.3505 19.6274 18.3536 18.6982C18.3536 17.1631 18.031 15.9171 17.3858 14.9604C16.7591 14.0217 15.937 13.2297 14.9758 12.6386ZM36.4668 9.6675C35.6877 8.82873 34.7475 8.15596 33.7024 7.68948C32.6623 7.22009 31.5337 6.97914 30.3927 6.98285C29.6532 6.97216 28.9167 7.08087 28.2118 7.30479C27.6423 7.48841 27.0889 7.71835 26.5569 7.99233C26.0461 8.26876 25.5717 8.60786 25.1447 9.0018V7.19293H20.9081V32.2415H25.5428V24.1493C25.9339 24.5111 26.3679 24.8236 26.835 25.0797C27.3255 25.3188 27.8331 25.5213 28.3535 25.6854C29.0148 25.8824 29.7029 25.9745 30.3927 25.9582C31.5339 25.961 32.6625 25.7191 33.7024 25.2488C34.7475 24.7824 35.6877 24.1096 36.4668 23.2708C37.2822 22.3966 37.9292 21.3791 38.3752 20.2697C38.849 19.066 39.0851 17.7819 39.0704 16.4883C39.0865 15.1811 38.8466 13.8835 38.3643 12.6686C37.9209 11.5603 37.2777 10.5431 36.4668 9.6675ZM33.0972 20.1524C32.2194 21.0307 31.0289 21.5241 29.7875 21.5241C28.5462 21.5241 27.3557 21.0307 26.4779 20.1524C25.5891 19.2429 25.1447 18.0179 25.1447 16.4773C25.1447 14.9368 25.5891 13.7108 26.4779 12.7996C27.3557 11.9213 28.5462 11.4278 29.7875 11.4278C31.0289 11.4278 32.2194 11.9213 33.0972 12.7996C33.9841 13.709 34.4276 14.9349 34.4276 16.4773C34.4276 18.0197 33.9841 19.2448 33.0972 20.1524ZM54.1629 7.19293V9.0018C53.726 8.6203 53.253 8.28221 52.7507 7.99233C52.2187 7.71835 51.6653 7.48841 51.0959 7.30479C50.3909 7.08055 49.6544 6.97183 48.9149 6.98285C47.7738 6.9788 46.6452 7.21977 45.6052 7.68948C44.5611 8.15627 43.6218 8.82903 42.8435 9.6675C42.0269 10.5408 41.3798 11.5585 40.9351 12.6686C40.4552 13.8839 40.219 15.1817 40.2399 16.4883C40.2256 17.7873 40.4655 19.0765 40.946 20.2833C41.39 21.3939 42.0372 22.4117 42.8544 23.2845C43.6335 24.1232 44.5737 24.796 45.6188 25.2625C46.6587 25.7331 47.7873 25.975 48.9285 25.9718C49.6666 25.982 50.402 25.8799 51.1095 25.669C51.6859 25.4952 52.241 25.2573 52.7643 24.9596C53.2672 24.6707 53.7403 24.3325 54.1765 23.9502V25.7645H58.4158V7.18748L54.1629 7.19293ZM52.8325 20.1524C51.9546 21.0307 50.7641 21.5241 49.5228 21.5241C48.2815 21.5241 47.091 21.0307 46.2131 20.1524C45.3244 19.2429 44.88 18.0179 44.88 16.4773C44.88 14.9368 45.3244 13.7108 46.2131 12.7996C47.091 11.9213 48.2815 11.4278 49.5228 11.4278C50.7641 11.4278 51.9546 11.9213 52.8325 12.7996C53.7194 13.709 54.1629 14.9349 54.1629 16.4773C54.1629 18.0197 53.7194 19.2448 52.8325 20.1524ZM70.8829 7.02378C70.6961 6.99693 70.5074 6.98417 70.3186 6.98558C69.6725 6.97367 69.0305 7.08957 68.4293 7.32662C67.9326 7.52585 67.465 7.79105 67.0389 8.1151C66.5994 8.42255 66.2048 8.78986 65.8667 9.20642V7.19293H61.6301V25.7645H66.2647V15.8689C66.2647 14.6576 66.6218 13.6817 67.3361 12.9415C67.6936 12.5731 68.1244 12.284 68.6006 12.0927C69.0767 11.9014 69.5877 11.8123 70.1005 11.831C70.3229 11.8298 70.5451 11.8435 70.7657 11.872C70.9675 11.8993 71.1365 11.9265 71.2701 11.9511L71.7144 12.0329V7.18748L71.311 7.10563L70.8829 7.02378ZM89.7595 7.18748H84.7159L81.0818 13.0424L77.4505 7.18748H72.4069L78.2574 16.2755L72.0034 25.7672H77.047L81.0818 19.5058L85.1194 25.7672H90.1629L83.9089 16.2755L89.7595 7.18748ZM112.038 19.102L103.361 0.320339H99.1241V25.7672H103.966V11.6292L110.424 25.7672H113.652L120.111 11.6292V25.7672H124.953V0.320339H120.716L112.038 19.102ZM154.374 2.74307H150.339V7.19293H146.91V11.4273H149.734V19.3039C149.72 20.2403 149.877 21.1714 150.198 22.0513C150.487 22.8284 150.926 23.5413 151.49 24.1493C152.038 24.7465 152.714 25.2127 153.466 25.5135C154.27 25.8312 155.127 25.9896 155.991 25.98C156.527 25.9842 157.062 25.9116 157.578 25.7645C157.798 25.7163 158.015 25.6488 158.224 25.5626V21.5247C158.12 21.5775 158.012 21.6186 157.899 21.6475C157.78 21.675 157.659 21.695 157.537 21.7075C157.403 21.7211 157.229 21.7266 157.013 21.7266C156.661 21.755 156.308 21.7066 155.977 21.5847C155.645 21.4629 155.345 21.2706 155.095 21.021C154.845 20.7714 154.653 20.4706 154.531 20.1392C154.409 19.8079 154.36 19.454 154.388 19.102V11.4273H158.425V7.18748H154.374V2.74307ZM176.168 9.10547C175.55 8.41974 174.788 7.88093 173.935 7.52851C173.045 7.16228 172.092 6.9768 171.13 6.98285C170.326 6.96528 169.525 7.07485 168.755 7.30752C168.189 7.48327 167.641 7.71353 167.119 7.99505C166.658 8.27315 166.237 8.61276 165.868 9.00453V0.320339H161.233V25.7645H165.868V15.4651C165.868 14.2538 166.225 13.278 166.939 12.5377C167.684 11.8253 168.674 11.4276 169.704 11.4276C170.734 11.4276 171.724 11.8253 172.468 12.5377C173.181 13.2798 173.537 14.2556 173.537 15.4651V25.7645H178.172V14.8513C178.188 13.736 178.003 12.627 177.626 11.5773C177.3 10.6689 176.805 9.83025 176.168 9.10547ZM193.987 17.626C193.527 16.9465 192.929 16.3727 192.231 15.9426C191.522 15.5068 190.754 15.1733 189.952 14.9522C189.132 14.7267 188.371 14.5121 187.67 14.3083C187.065 14.1419 186.477 13.9181 185.914 13.6399C185.71 13.5596 185.535 13.4211 185.409 13.2416C185.284 13.062 185.214 12.8495 185.208 12.6304C185.205 12.3851 185.256 12.1422 185.358 11.9187C185.459 11.6953 185.608 11.4968 185.794 11.3372C186.255 10.9638 186.838 10.7768 187.43 10.8134C188.07 10.793 188.694 11.0085 189.186 11.4191C189.588 11.7278 189.89 12.1495 190.053 12.6304H194.491C194.304 11.0699 193.55 9.63274 192.373 8.59255C191.177 7.51396 189.462 6.97558 187.228 6.9774C186.292 6.96121 185.362 7.11846 184.483 7.44121C183.717 7.72598 183.007 8.14238 182.384 8.67167C181.812 9.16019 181.354 9.76733 181.04 10.4509C180.727 11.1346 180.566 11.8783 180.568 12.6304C180.568 13.709 180.803 14.5775 181.274 15.236C181.74 15.8913 182.338 16.4416 183.03 16.8511C183.741 17.2734 184.508 17.593 185.309 17.8006C186.129 18.0152 186.889 18.2244 187.591 18.4281C188.196 18.5937 188.784 18.8166 189.346 19.0938C189.55 19.1741 189.726 19.3126 189.851 19.4921C189.977 19.6717 190.047 19.8842 190.053 20.1033C190.044 20.3732 189.976 20.638 189.854 20.8789C189.732 21.1198 189.559 21.331 189.346 21.4974C188.786 21.9072 188.109 22.1262 187.415 22.1223C186.722 22.1184 186.047 21.8917 185.492 21.4756C185.021 21.0707 184.707 20.5138 184.603 19.9014H180.164C180.346 21.7311 181.066 23.199 182.324 24.3048C183.581 25.4107 185.42 25.9655 187.839 25.9691C188.806 25.9787 189.766 25.8171 190.677 25.4917C191.465 25.2165 192.197 24.7995 192.836 24.2612C193.411 23.7642 193.876 23.1516 194.199 22.4632C194.521 21.7902 194.69 21.054 194.693 20.3079C194.693 19.2056 194.457 18.3117 193.987 17.626ZM141.22 7.19293V9.0018C140.784 8.61966 140.311 8.28154 139.808 7.99233C139.276 7.71835 138.722 7.48841 138.153 7.30479C137.448 7.08055 136.712 6.97183 135.972 6.98285C134.831 6.9788 133.702 7.21977 132.662 7.68948C131.617 8.15596 130.677 8.82873 129.898 9.6675C129.083 10.5422 128.436 11.5595 127.99 12.6686C127.51 13.8839 127.273 15.1817 127.294 16.4883C127.28 17.7873 127.52 19.0765 128.001 20.2833C128.447 21.3928 129.094 22.4102 129.909 23.2845C130.688 24.1232 131.628 24.796 132.673 25.2625C133.713 25.7331 134.842 25.975 135.983 25.9718C136.721 25.982 137.456 25.8799 138.164 25.669C138.74 25.4952 139.295 25.2573 139.819 24.9596C140.322 24.6714 140.795 24.3332 141.231 23.9502V25.7645H145.47V7.18748L141.22 7.19293ZM139.89 20.1524C139.012 21.0307 137.821 21.5241 136.58 21.5241C135.339 21.5241 134.148 21.0307 133.27 20.1524C132.382 19.2429 131.937 18.0179 131.937 16.4773C131.937 14.9368 132.382 13.7108 133.27 12.7996C134.148 11.9213 135.339 11.4278 136.58 11.4278C137.821 11.4278 139.012 11.9213 139.89 12.7996C140.777 13.7163 141.22 14.9459 141.22 16.4883C141.22 18.0307 140.776 19.252 139.887 20.1524H139.89Z" fill="white"/>
<defs>
<linearGradient id="paint0_linear_547_8176" x1="1.03282e-06" y1="44.7068" x2="283.162" y2="79.7785" gradientUnits="userSpaceOnUse">
<stop stop-color="#ED4895"/>
<stop offset="1" stop-color="#F76B23"/>
</linearGradient>
</defs>
</svg>
