<?xml version="1.0" encoding="UTF-8"?>
<svg id="Layer_2" data-name="Layer 2" xmlns="http://www.w3.org/2000/svg" xmlns:xlink="http://www.w3.org/1999/xlink" viewBox="0 0 395.55 48.38">
  <defs>
    <radialGradient id="radial-gradient" cx="8.77" cy="-6.58" fx="8.77" fy="-6.58" r="65.66" gradientUnits="userSpaceOnUse">
      <stop offset="0" stop-color="#71ffcc"/>
      <stop offset=".07" stop-color="#73f7cf"/>
      <stop offset=".18" stop-color="#79e4d7"/>
      <stop offset=".31" stop-color="#83c3e5"/>
      <stop offset=".45" stop-color="#9097f9"/>
      <stop offset=".49" stop-color="#958aff"/>
      <stop offset=".5" stop-color="#9689fd"/>
      <stop offset=".67" stop-color="#c279c5"/>
      <stop offset=".81" stop-color="#e36d9c"/>
      <stop offset=".93" stop-color="#f76683"/>
      <stop offset="1" stop-color="#ff647a"/>
    </radialGradient>
  </defs>
  <g id="Layer_1-2" data-name="Layer 1">
    <g>
      <polygon style="stroke-width: 0px;fill: url(#radial-gradient)" points="40.35 15.64 37.68 9.16 26.67 13.7 31.24 2.7 24.76 .01 20.19 11.01 15.64 0 9.16 2.68 13.7 13.69 2.7 9.12 .01 15.6 11.01 20.17 0 24.71 2.68 31.2 13.69 26.65 9.12 37.65 15.6 40.34 20.17 29.34 24.71 40.35 31.2 37.68 26.65 26.67 37.65 31.24 40.34 24.76 29.34 20.19 40.35 15.64"/>
      <g>
        <path style="stroke-width: 0px;fill: #1d084a;" d="m79.44,19.89c-1.4-.85-2.92-1.53-4.56-2.03-1.65-.5-3.17-.99-4.57-1.45-1.39-.47-2.56-.99-3.49-1.57-.93-.58-1.39-1.41-1.39-2.5,0-1.01.48-1.94,1.45-2.79.97-.85,2.32-1.28,4.07-1.28s3.1.47,4.07,1.4c.97.93,1.45,2.21,1.45,3.84h6.68c0-1.67-.29-3.21-.87-4.62-.58-1.41-1.41-2.65-2.5-3.69-1.09-1.05-2.38-1.86-3.87-2.44-1.49-.58-3.15-.87-4.97-.87-1.98,0-3.75.29-5.32.87-1.57.58-2.91,1.35-4.01,2.3-1.1.95-1.96,2.06-2.56,3.34-.6,1.28-.9,2.62-.9,4.01,0,2.13.47,3.85,1.4,5.15.93,1.3,2.09,2.35,3.49,3.16,1.39.82,2.91,1.46,4.56,1.92,1.65.46,3.17.94,4.56,1.43,1.4.48,2.56,1.04,3.49,1.66.93.62,1.4,1.49,1.4,2.62s-.51,2.18-1.51,3.05c-1.01.87-2.54,1.31-4.59,1.31-1.9,0-3.39-.51-4.48-1.54-1.08-1.03-1.63-2.36-1.63-3.98h-6.98c0,1.74.3,3.34.9,4.79.6,1.45,1.46,2.71,2.59,3.78,1.12,1.07,2.49,1.89,4.1,2.47,1.61.59,3.44.88,5.49.88s3.85-.3,5.49-.9c1.65-.6,3.05-1.39,4.22-2.38,1.16-.99,2.06-2.1,2.7-3.34.64-1.24.96-2.52.96-3.84,0-2.21-.46-4-1.39-5.38-.93-1.37-2.09-2.49-3.49-3.34Z"/>
        <path style="stroke-width: 0px;fill: #1d084a;" d="m110.4,15.61c-1.14-1.22-2.47-2.17-3.98-2.85-1.51-.68-3.1-1.02-4.77-1.02-1.16,0-2.21.15-3.14.46-.93.31-1.72.64-2.38.99-.77.42-1.45.91-2.03,1.45v-2.61h-6.1s0,0,0,0h0v5.09h0v30.95h6.68v-11.63c.54.51,1.16.95,1.86,1.34.62.31,1.35.6,2.18.87.83.27,1.81.41,2.94.41,1.66,0,3.26-.34,4.77-1.02,1.51-.68,2.84-1.63,3.98-2.85,1.14-1.22,2.05-2.66,2.73-4.33.68-1.66,1.02-3.49,1.02-5.46s-.34-3.8-1.02-5.47c-.68-1.66-1.59-3.11-2.73-4.33Zm-4.85,15.09c-1.28,1.32-2.87,1.98-4.77,1.98s-3.49-.66-4.77-1.98c-1.28-1.32-1.92-3.08-1.92-5.29s.64-3.97,1.92-5.29c1.28-1.32,2.87-1.98,4.77-1.98s3.49.66,4.77,1.98c1.28,1.32,1.92,3.08,1.92,5.29s-.64,3.97-1.92,5.29Z"/>
        <path style="stroke-width: 0px;fill: #1d084a;" d="m135.88,12.05v2.61h0c-.62-.54-1.3-1.03-2.03-1.45-.66-.35-1.45-.68-2.38-.99-.93-.31-1.98-.46-3.14-.46-1.67,0-3.26.34-4.77,1.02-1.51.68-2.84,1.63-3.98,2.85-1.15,1.22-2.06,2.67-2.73,4.33-.68,1.66-1.02,3.49-1.02,5.47s.34,3.8,1.02,5.46c.68,1.67,1.59,3.11,2.73,4.33,1.14,1.22,2.47,2.17,3.98,2.85,1.51.68,3.1,1.02,4.77,1.02,1.16,0,2.21-.15,3.14-.44.93-.29,1.72-.63,2.38-1.02.73-.42,1.41-.91,2.03-1.45h0v2.62h6.1s0-26.74,0-26.74h-6.1Zm-1.92,18.65c-1.28,1.32-2.87,1.98-4.77,1.98s-3.49-.66-4.77-1.98c-1.28-1.32-1.92-3.08-1.92-5.29s.64-3.97,1.92-5.29c1.28-1.32,2.87-1.98,4.77-1.98s3.49.66,4.77,1.98c1.28,1.32,1.92,3.08,1.92,5.29s-.64,3.97-1.92,5.29Z"/>
        <path style="stroke-width: 0px;fill: #1d084a;" d="m159.95,11.81c-.23-.04-.5-.06-.81-.06-1.01,0-1.91.16-2.71.49-.79.33-1.46.71-2,1.13-.66.47-1.22.99-1.69,1.57v-2.9h-1.16s-4.94,0-4.94,0h0s0,0,0,0v5.09h0v21.65h6.68v-14.25c0-1.74.51-3.15,1.54-4.21,1.02-1.06,2.35-1.6,3.98-1.6.35,0,.67.02.96.06.29.04.53.08.73.11.23.04.44.08.64.12v-6.97c-.2-.04-.39-.08-.58-.12-.2-.04-.41-.08-.64-.12Z"/>
        <polygon style="stroke-width: 0px;fill: #1d084a;" points="187.15 12.04 179.89 12.04 174.65 20.47 169.42 12.04 162.16 12.04 170.59 25.12 161.58 38.78 168.84 38.78 174.65 29.77 180.47 38.78 187.73 38.78 178.73 25.12 187.15 12.04"/>
        <path style="stroke-width: 0px;fill: #1d084a;" d="m226.8,31.81v6.69h-24.13V1.86h6.98v29.94h17.15Z"/>
        <path style="stroke-width: 0px;fill: #1d084a;" d="m252.71,30.35c-.35,1.01-.88,2.02-1.6,3.02-.72,1.01-1.59,1.91-2.62,2.7-1.03.79-2.19,1.44-3.49,1.95-1.3.5-2.7.76-4.22.76-1.82,0-3.54-.36-5.15-1.08-1.61-.72-3.02-1.7-4.24-2.94-1.22-1.24-2.19-2.68-2.91-4.33-.72-1.65-1.08-3.42-1.08-5.32s.36-3.67,1.08-5.32c.72-1.65,1.69-3.09,2.91-4.33,1.22-1.24,2.64-2.22,4.24-2.94,1.61-.72,3.32-1.08,5.15-1.08s3.39.33,4.94.99c1.55.66,2.91,1.59,4.07,2.79,1.16,1.2,2.08,2.65,2.76,4.33.68,1.69,1.02,3.54,1.02,5.55,0,.31-.02.61-.06.9-.04.29-.08.57-.12.84-.04.31-.08.6-.12.87h-18.61c.31,1.32.97,2.42,1.98,3.31,1.01.89,2.38,1.34,4.13,1.34.89,0,1.64-.1,2.24-.29.6-.19,1.11-.43,1.54-.7.47-.31.85-.66,1.16-1.05h6.98Zm-11.92-12.5c-1.74,0-3.17.5-4.27,1.51-1.1,1.01-1.81,2.25-2.12,3.72h12.79c-.31-1.47-1.02-2.71-2.12-3.72-1.1-1.01-2.53-1.51-4.27-1.51Z"/>
        <path style="stroke-width: 0px;fill: #1d084a;" d="m267.77,38.78c-1.67,0-3.26-.34-4.77-1.02-1.51-.68-2.84-1.63-3.98-2.85-1.14-1.22-2.06-2.66-2.73-4.33-.68-1.67-1.02-3.49-1.02-5.47s.34-3.8,1.02-5.47c.68-1.67,1.59-3.11,2.73-4.33,1.14-1.22,2.47-2.17,3.98-2.85,1.51-.68,3.1-1.02,4.77-1.02,1.16,0,2.21.16,3.14.47.93.31,1.72.64,2.38.99.74.43,1.41.91,2.03,1.45l1.16-2.62h4.94v26.75h-4.94l-1.16-2.62c-.62.54-1.3,1.03-2.03,1.45-.66.39-1.45.73-2.38,1.02-.93.29-1.98.44-3.14.44Zm7.56-13.66c0-2.21-.64-3.97-1.92-5.29-1.28-1.32-2.87-1.98-4.77-1.98s-3.49.66-4.77,1.98c-1.28,1.32-1.92,3.08-1.92,5.29s.64,3.97,1.92,5.29c1.28,1.32,2.87,1.98,4.77,1.98s3.49-.66,4.77-1.98c1.28-1.32,1.92-3.08,1.92-5.29Z"/>
        <path style="stroke-width: 0px;fill: #1d084a;" d="m298.58,11.46c.31,0,.58.02.81.06.23.04.45.08.64.12.19.04.39.08.58.12v6.98c-.19-.04-.41-.08-.64-.12-.19-.04-.44-.08-.73-.12-.29-.04-.61-.06-.96-.06-1.63,0-2.96.53-3.98,1.6-1.03,1.07-1.54,2.47-1.54,4.22v14.25h-6.69V11.75h4.94l1.16,2.91c.47-.58,1.03-1.1,1.69-1.57.54-.43,1.21-.8,2.01-1.13.79-.33,1.7-.49,2.7-.49Z"/>
        <path style="stroke-width: 0px;fill: #1d084a;" d="m316.68,11.46c1.59,0,3.04.26,4.36.78,1.32.52,2.45,1.28,3.4,2.27.95.99,1.69,2.18,2.21,3.58.52,1.4.78,2.97.78,4.71v15.7h-6.69v-14.83c0-1.74-.51-3.15-1.54-4.22-1.03-1.07-2.35-1.6-3.98-1.6s-2.96.53-3.98,1.6c-1.03,1.07-1.54,2.47-1.54,4.22v14.83h-6.69V11.75h4.94l1.16,2.62c.66-.54,1.38-1.03,2.15-1.45.66-.35,1.44-.68,2.35-.99.91-.31,1.93-.47,3.05-.47Z"/>
        <path style="stroke-width: 0px;fill: #1d084a;" d="m335.61,8.26c-1.01,0-1.89-.38-2.65-1.13-.76-.76-1.13-1.64-1.13-2.65s.38-1.89,1.13-2.65c.76-.76,1.64-1.13,2.65-1.13s1.89.38,2.65,1.13c.76.76,1.13,1.64,1.13,2.65s-.38,1.89-1.13,2.65c-.76.76-1.64,1.13-2.65,1.13Zm3.2,30.23h-6.69V11.75h6.69v26.75Z"/>
        <path style="stroke-width: 0px;fill: #1d084a;" d="m357.12,11.46c1.59,0,3.04.26,4.36.78,1.32.52,2.45,1.28,3.4,2.27.95.99,1.69,2.18,2.21,3.58.52,1.4.78,2.97.78,4.71v15.7h-6.69v-14.83c0-1.74-.51-3.15-1.54-4.22-1.03-1.07-2.35-1.6-3.98-1.6s-2.96.53-3.98,1.6c-1.03,1.07-1.54,2.47-1.54,4.22v14.83h-6.69V11.75h4.94l1.16,2.62c.66-.54,1.38-1.03,2.15-1.45.66-.35,1.44-.68,2.35-.99.91-.31,1.93-.47,3.05-.47Z"/>
        <path style="stroke-width: 0px;fill: #1d084a;" d="m381.89,11.46c1.16,0,2.21.16,3.14.47.93.31,1.72.64,2.38.99.74.43,1.41.91,2.04,1.45l1.16-2.62h4.94v25c0,3.49-1.11,6.3-3.34,8.43-2.23,2.13-5.38,3.2-9.45,3.2-2.48,0-4.49-.45-6.02-1.34-1.53-.89-2.74-1.9-3.63-3.02-1.01-1.28-1.76-2.73-2.27-4.36h6.69c.27.5.64.95,1.1,1.34.43.31.97.6,1.63.87.66.27,1.49.41,2.5.41,1.9,0,3.39-.51,4.48-1.54,1.08-1.03,1.63-2.35,1.63-3.98v-2.04c-.54.54-1.16,1.03-1.86,1.45-.62.39-1.36.73-2.21,1.02-.85.29-1.82.44-2.91.44-1.67,0-3.25-.33-4.74-.99-1.49-.66-2.79-1.57-3.9-2.73-1.1-1.16-1.98-2.54-2.62-4.13-.64-1.59-.96-3.33-.96-5.23s.32-3.64.96-5.23c.64-1.59,1.51-2.97,2.62-4.13,1.1-1.16,2.4-2.07,3.9-2.73,1.49-.66,3.07-.99,4.74-.99Zm-5.52,13.08c0,.93.16,1.8.49,2.62.33.81.78,1.52,1.37,2.12.58.6,1.26,1.08,2.04,1.42.77.35,1.61.52,2.5.52s1.67-.17,2.44-.52c.78-.35,1.45-.82,2.04-1.42.58-.6,1.05-1.31,1.4-2.12.35-.81.52-1.69.52-2.62s-.17-1.8-.52-2.62-.81-1.52-1.4-2.12c-.58-.6-1.26-1.08-2.04-1.42-.78-.35-1.59-.52-2.44-.52s-1.73.17-2.5.52c-.78.35-1.45.82-2.04,1.42-.58.6-1.04,1.31-1.37,2.12-.33.81-.49,1.69-.49,2.62Z"/>
      </g>
    </g>
  </g>
</svg>