<svg width="67" height="80" viewBox="0 0 67 80" fill="none" xmlns="http://www.w3.org/2000/svg">
<g id="Frame">
<g id="Group">
<g id="Layer 2">
<g id="Group_2">
<g id="Vector" filter="url(#filter0_d_547_8267)">
<path d="M57.6071 56.3943L51.7919 56.4607C51.6899 56.4622 51.594 56.5188 51.5455 56.6093L48.7419 61.7774C48.6364 61.9689 48.3624 61.9769 48.2496 61.7898L38.0914 45.0389C38.047 44.9659 37.9734 44.9156 37.8896 44.9053C37.23 44.812 36.5597 44.7539 35.8966 44.8288L35.8366 44.8354C35.4472 44.878 35.0626 44.9638 34.6881 45.0752C34.5986 45.102 34.5306 45.1703 34.4987 45.2564L28.0421 64.2658C27.9723 64.4729 27.701 64.5269 27.5587 64.36L23.7711 59.9463C23.7043 59.8685 23.6007 59.8336 23.4982 59.8521L17.7385 61.0264C17.5243 61.0692 17.3415 60.8655 17.4137 60.6581L23.6588 42.2726C23.7122 42.1159 23.6233 41.9481 23.4629 41.9048C23.2401 41.8465 23.0151 41.7908 22.7904 41.7376C21.6263 41.4562 20.5316 41.1867 19.9124 40.5053C19.3008 39.8279 19.1458 38.7212 18.9832 37.5449C18.8517 36.6083 18.7167 35.6405 18.3333 34.7801C17.9668 33.9641 17.3506 33.2434 16.7565 32.5471C15.9668 31.6192 15.2248 30.7494 15.1224 29.7902C15.0213 28.8211 15.5876 27.7718 16.1379 26.7534C16.5702 25.9474 17.0189 25.1128 17.2072 24.2313C17.401 23.3126 17.3286 22.338 17.2547 21.3951C17.1701 20.1981 17.0899 19.0856 17.5419 18.3042C17.9997 17.5075 19.0111 17.0151 20.0805 16.497C20.9303 16.0831 21.8014 15.6644 22.4986 15.0337C23.169 14.4254 23.6708 13.6093 24.1563 12.8217L24.1686 12.8009C24.7963 11.779 25.3913 10.8141 26.2442 10.429C26.4833 10.325 26.7539 10.2639 27.0505 10.2412C27.7109 10.186 28.4625 10.3203 29.2606 10.4569L29.3001 10.4623C30.1832 10.6211 31.1804 10.7991 32.143 10.7061C33.1031 10.589 34.0382 10.1998 34.8662 9.85395L34.9037 9.84013C35.6531 9.53204 36.3582 9.24096 37.0149 9.15216C37.3095 9.11024 37.5869 9.11154 37.8428 9.1614C38.7588 9.35314 39.5484 10.1691 40.3817 11.029L40.3982 11.0467C41.0423 11.7107 41.7086 12.3992 42.4946 12.8483C43.3113 13.3112 44.2525 13.5342 45.1716 13.7548C46.3277 14.0297 47.4217 14.292 48.0406 14.971C48.6509 15.6363 48.8128 16.7398 48.9887 17.9269C49.1229 18.8656 49.26 19.8308 49.6478 20.6858C50.0222 21.5083 50.6406 22.2263 51.2366 22.9175C51.9938 23.793 52.7734 24.6952 52.8841 25.6632C52.9913 26.6219 52.4549 27.6339 51.8841 28.708C51.4522 29.5189 51.0062 30.3556 50.8268 31.2289C50.6385 32.1542 50.7134 33.1286 50.7894 34.0688C50.8823 35.2528 50.9724 36.3665 50.5216 37.16C50.1009 37.8943 49.2099 38.3759 48.2315 38.8598L47.9892 39.6913L57.8567 55.9633C57.9695 56.1504 57.8377 56.391 57.6167 56.3933L57.6071 56.3943Z" fill="white"/>
<path d="M57.6071 56.3943L51.7919 56.4607C51.6899 56.4622 51.594 56.5188 51.5455 56.6093L48.7419 61.7774C48.6364 61.9689 48.3624 61.9769 48.2496 61.7898L38.0914 45.0389C38.047 44.9659 37.9734 44.9156 37.8896 44.9053C37.23 44.812 36.5597 44.7539 35.8966 44.8288L35.8366 44.8354C35.4472 44.878 35.0626 44.9638 34.6881 45.0752C34.5986 45.102 34.5306 45.1703 34.4987 45.2564L28.0421 64.2658C27.9723 64.4729 27.701 64.5269 27.5587 64.36L23.7711 59.9463C23.7043 59.8685 23.6007 59.8336 23.4982 59.8521L17.7385 61.0264C17.5243 61.0692 17.3415 60.8655 17.4137 60.6581L23.6588 42.2726C23.7122 42.1159 23.6233 41.9481 23.4629 41.9048C23.2401 41.8465 23.0151 41.7908 22.7904 41.7376C21.6263 41.4562 20.5316 41.1867 19.9124 40.5053C19.3008 39.8279 19.1458 38.7212 18.9832 37.5449C18.8517 36.6083 18.7167 35.6405 18.3333 34.7801C17.9668 33.9641 17.3506 33.2434 16.7565 32.5471C15.9668 31.6192 15.2248 30.7494 15.1224 29.7902C15.0213 28.8211 15.5876 27.7718 16.1379 26.7534C16.5702 25.9474 17.0189 25.1128 17.2072 24.2313C17.401 23.3126 17.3286 22.338 17.2547 21.3951C17.1701 20.1981 17.0899 19.0856 17.5419 18.3042C17.9997 17.5075 19.0111 17.0151 20.0805 16.497C20.9303 16.0831 21.8014 15.6644 22.4986 15.0337C23.169 14.4254 23.6708 13.6093 24.1563 12.8217L24.1686 12.8009C24.7963 11.779 25.3913 10.8141 26.2442 10.429C26.4833 10.325 26.7539 10.2639 27.0505 10.2412C27.7109 10.186 28.4625 10.3203 29.2606 10.4569L29.3001 10.4623C30.1832 10.6211 31.1804 10.7991 32.143 10.7061C33.1031 10.589 34.0382 10.1998 34.8662 9.85395L34.9037 9.84013C35.6531 9.53204 36.3582 9.24096 37.0149 9.15216C37.3095 9.11024 37.5869 9.11154 37.8428 9.1614C38.7588 9.35314 39.5484 10.1691 40.3817 11.029L40.3982 11.0467C41.0423 11.7107 41.7086 12.3992 42.4946 12.8483C43.3113 13.3112 44.2525 13.5342 45.1716 13.7548C46.3277 14.0297 47.4217 14.292 48.0406 14.971C48.6509 15.6363 48.8128 16.7398 48.9887 17.9269C49.1229 18.8656 49.26 19.8308 49.6478 20.6858C50.0222 21.5083 50.6406 22.2263 51.2366 22.9175C51.9938 23.793 52.7734 24.6952 52.8841 25.6632C52.9913 26.6219 52.4549 27.6339 51.8841 28.708C51.4522 29.5189 51.0062 30.3556 50.8268 31.2289C50.6385 32.1542 50.7134 33.1286 50.7894 34.0688C50.8823 35.2528 50.9724 36.3665 50.5216 37.16C50.1009 37.8943 49.2099 38.3759 48.2315 38.8598L47.9892 39.6913L57.8567 55.9633C57.9695 56.1504 57.8377 56.391 57.6167 56.3933L57.6071 56.3943Z" stroke="white" stroke-width="8" stroke-linejoin="round"/>
</g>
<path id="Vector_2" d="M57.6068 56.3949L51.789 56.4592C51.687 56.4607 51.5911 56.5173 51.5426 56.6078L48.739 61.7759C48.6335 61.9674 48.3595 61.9754 48.2467 61.7883L34.6503 39.3695C34.5699 39.2348 34.6116 39.06 34.7463 38.9796L43.8608 33.4525C43.9955 33.3721 44.1703 33.4138 44.2507 33.5485L57.8468 55.965C57.9597 56.1521 57.8279 56.3927 57.6068 56.3949Z" fill="#FFD200" stroke="#16224E" stroke-width="2" stroke-linejoin="round"/>
<g id="Group_3" style="mix-blend-mode:overlay" opacity="0.7">
<path id="Vector_3" d="M53.86 54.1784L50.3817 54.1524C50.2746 54.1519 50.1766 54.2113 50.1286 54.3065L48.5098 57.4311C48.4072 57.6272 48.1311 57.6379 48.0156 57.4486L39.1512 42.8327C39.0708 42.698 39.1125 42.5232 39.2472 42.4428L44.8537 39.0429C44.9884 38.9625 45.1632 39.0042 45.2436 39.1389L54.1077 53.7525C54.2232 53.9417 54.0845 54.1855 53.8629 54.1829L53.86 54.1784Z" stroke="#FFD200" stroke-width="3" stroke-linecap="round" stroke-linejoin="round"/>
</g>
<path id="Vector_4" d="M27.5585 64.3573L23.7685 59.9438C23.7016 59.866 23.5981 59.8311 23.4956 59.8496L17.7358 61.0239C17.5216 61.0667 17.3413 60.8627 17.411 60.6556L25.8439 35.8292C25.8933 35.6803 26.055 35.6018 26.2039 35.6512L36.2971 39.0791C36.446 39.1285 36.5245 39.2901 36.4751 39.439L28.0419 64.2631C27.9721 64.4701 27.7007 64.5241 27.5585 64.3573Z" fill="#FFD200" stroke="#16224E" stroke-width="2" stroke-linejoin="round"/>
<g id="Group_4" style="mix-blend-mode:overlay" opacity="0.7">
<path id="Vector_5" d="M26.8452 60.0631L24.6308 57.3818C24.5634 57.2992 24.4549 57.2624 24.3504 57.286L20.9174 58.0527C20.7014 58.1006 20.5159 57.8947 20.5878 57.685L26.0859 41.4994C26.1353 41.3505 26.297 41.272 26.4459 41.3214L32.6544 43.4301C32.8033 43.4795 32.8817 43.6411 32.8323 43.79L27.334 59.9732C27.262 60.1829 26.988 60.2348 26.8476 60.0629L26.8452 60.0631Z" stroke="#FFD200" stroke-width="3" stroke-linecap="round" stroke-linejoin="round"/>
</g>
<path id="Vector_6" d="M52.8761 25.6622C52.9833 26.6209 52.447 27.6328 51.8761 28.707C51.4443 29.5178 50.9982 30.3546 50.8188 31.2278C50.6305 32.1532 50.7054 33.1275 50.7814 34.0677C50.8743 35.2517 50.9644 36.3655 50.5137 37.159C50.056 37.9556 49.0453 38.4552 47.9697 38.9838C47.1274 39.3993 46.2547 39.8255 45.5714 40.4498C44.8946 41.0661 44.3959 41.8891 43.9096 42.6914C43.2849 43.7179 42.6971 44.682 41.8394 45.0676C41.6449 45.1569 41.4323 45.2142 41.2071 45.2461C40.5002 45.3428 39.6603 45.2011 38.7872 45.0461L38.7576 45.042C37.8208 44.8817 36.8543 44.7174 35.9004 44.8241L35.8404 44.8306C34.886 44.9325 33.9775 45.2993 33.0977 45.6606L33.0696 45.6709C32.248 46.0088 31.4588 46.331 30.7501 46.389C30.521 46.4067 30.3034 46.3964 30.0942 46.3512C29.1758 46.1597 28.391 45.3432 27.5596 44.4783C26.9115 43.8 26.2468 43.1041 25.4528 42.6485C24.6535 42.1887 23.709 41.9587 22.7945 41.7352C21.6304 41.4538 20.5357 41.1843 19.9164 40.5029C19.3049 39.8256 19.1499 38.7189 18.9873 37.5425C18.8558 36.6059 18.7208 35.6381 18.3374 34.7777C17.9709 33.9617 17.3547 33.2411 16.7605 32.5448C15.9709 31.6169 15.2289 30.747 15.1265 29.7878C15.0254 28.8188 15.5917 27.7694 16.1419 26.7511C16.5743 25.945 17.023 25.1104 17.2112 24.2289C17.4051 23.3103 17.3326 22.3356 17.2588 21.3928C17.1742 20.1957 17.0939 19.0833 17.546 18.3018C18.0037 17.5052 19.0152 17.0128 20.0846 16.4946C20.9343 16.0807 21.8055 15.662 22.5027 15.0313C23.1731 14.423 23.6749 13.6069 24.1604 12.8194L24.1727 12.7986C24.8003 11.7766 25.3953 10.8117 26.2482 10.4267C26.4874 10.3227 26.7579 10.2615 27.0546 10.2388C27.715 10.1837 28.4666 10.318 29.2646 10.4545L29.3041 10.4599C30.1873 10.6188 31.1844 10.7968 32.1471 10.7037C33.1071 10.5866 34.0423 10.1974 34.8703 9.85159L34.9077 9.83777C35.6572 9.52968 36.3623 9.2386 37.019 9.1498C37.3135 9.10788 37.5909 9.10918 37.8469 9.15904C38.7628 9.35078 39.5525 10.1668 40.3858 11.0266L40.4023 11.0443C41.0464 11.7084 41.7126 12.3968 42.4986 12.846C43.3153 13.3088 44.2566 13.5318 45.1757 13.7524C46.3318 14.0273 47.4257 14.2896 48.0447 14.9686C48.6549 15.634 48.8169 16.7375 48.9928 17.9245C49.127 18.8633 49.2641 19.8284 49.6518 20.6835C50.0263 21.5059 50.6447 22.2239 51.2407 22.9151C51.9979 23.7906 52.7775 24.6928 52.8881 25.6609L52.8761 25.6622Z" fill="#FFD200" stroke="#16224E" stroke-width="2" stroke-linejoin="round"/>
<path id="Vector_7" d="M35.1073 37.8743C40.4751 37.2877 44.3509 32.4607 43.7643 27.0929C43.1777 21.7251 38.3507 17.8493 32.9829 18.4359C27.6151 19.0225 23.7392 23.8495 24.3259 29.2173C24.9125 34.5851 29.7395 38.461 35.1073 37.8743Z" fill="#E6EFF9" stroke="#16224E" stroke-linejoin="round"/>
<g id="Group_5" style="mix-blend-mode:multiply" opacity="0.6">
<path id="Vector_8" d="M50.8442 23.2503C50.22 22.5233 49.5816 21.7783 49.1787 20.8957C48.7562 19.9666 48.6101 18.9198 48.4775 17.9955C48.3131 16.8923 48.1615 15.8606 47.6589 15.3124C47.1423 14.7462 46.1236 14.5049 45.047 14.2456C44.0831 14.0153 43.1093 13.7837 42.2355 13.2882C41.3847 12.8023 40.6939 12.0898 40.025 11.3993L40.0027 11.3725C39.2269 10.572 38.4924 9.81568 37.7307 9.65572C37.5396 9.62067 37.3205 9.61787 37.0809 9.65135C36.4961 9.72986 35.8326 10.0018 35.1251 10.2931L35.041 10.3242C34.2458 10.6592 33.2366 11.0832 32.1997 11.2087C31.1433 11.312 30.0664 11.116 29.2029 10.9598L29.1311 10.9482C28.3801 10.8187 27.6736 10.6965 27.0877 10.7435C27.0565 10.7469 27.0274 10.7477 26.9985 10.7508C26.7918 10.7734 26.6051 10.823 26.44 10.8921C25.967 11.1043 25.5598 11.5842 25.1685 12.1644C25.3546 11.9763 25.5549 11.8279 25.7633 11.7322C25.9284 11.6631 26.1127 11.6137 26.3218 11.5909C26.3506 11.5877 26.3797 11.587 26.411 11.5836C26.9942 11.5344 27.7007 11.6566 28.4544 11.7883L28.5262 11.7999C29.3896 11.956 30.4666 12.1521 31.523 12.0488C32.5623 11.923 33.5691 11.4993 34.3642 11.1643L34.4484 11.1332C35.1538 10.8445 35.8172 10.5726 36.4042 10.4914C36.6437 10.4579 36.8651 10.4581 37.054 10.4958C37.8157 10.6557 38.5502 11.4121 39.3259 12.2126L39.3483 12.2393C40.0172 12.9299 40.708 13.6424 41.5588 14.1283C42.4325 14.6238 43.404 14.8556 44.3703 15.0857C45.4493 15.3447 46.4655 15.5863 46.9822 16.1524C47.4848 16.7007 47.6364 17.7323 47.8008 18.8355C47.9334 19.7598 48.0794 20.8067 48.502 21.7358C48.9049 22.6183 49.5433 23.3633 50.1675 24.0904C50.8741 24.9033 51.6009 25.7456 51.6948 26.5598C51.7846 27.3599 51.2847 28.3047 50.7479 29.3118C50.2997 30.1512 49.8355 31.0216 49.6421 31.9669C49.4376 32.967 49.5212 34.0206 49.5937 34.9515C49.6699 35.9379 49.7459 36.8781 49.4892 37.5336C49.7336 37.344 49.9347 37.1371 50.0649 36.904C50.4383 36.2479 50.3563 35.2086 50.2678 34.1093C50.1952 33.1784 50.1093 32.125 50.3161 31.1247C50.5095 30.1794 50.9738 29.309 51.4219 28.4696C51.9561 27.4603 52.4584 26.5153 52.3688 25.7176C52.275 24.9034 51.5482 24.0611 50.8416 23.2482L50.8442 23.2503ZM22.8355 15.4084C22.087 16.0812 21.1886 16.5175 20.3156 16.9412C19.2996 17.4365 18.3596 17.8919 17.9774 18.5563C17.9364 18.6264 17.9008 18.7008 17.8704 18.7795C18.3343 18.4175 18.9695 18.1098 19.6389 17.7813C20.5119 17.3575 21.4103 16.9213 22.1588 16.2485C22.5418 15.9026 22.8674 15.4998 23.1643 15.0782C23.0599 15.1918 22.9479 15.3013 22.8329 15.4063L22.8355 15.4084Z" fill="#FFD200"/>
</g>
</g>
</g>
</g>
</g>
<defs>
<filter id="filter0_d_547_8267" x="0.110596" y="0.122253" width="66.791" height="79.3397" filterUnits="userSpaceOnUse" color-interpolation-filters="sRGB">
<feFlood flood-opacity="0" result="BackgroundImageFix"/>
<feColorMatrix in="SourceAlpha" type="matrix" values="0 0 0 0 0 0 0 0 0 0 0 0 0 0 0 0 0 0 127 0" result="hardAlpha"/>
<feOffset dx="-3" dy="3"/>
<feGaussianBlur stdDeviation="4"/>
<feColorMatrix type="matrix" values="0 0 0 0 0.0862745 0 0 0 0 0.133333 0 0 0 0 0.305882 0 0 0 0.2 0"/>
<feBlend mode="normal" in2="BackgroundImageFix" result="effect1_dropShadow_547_8267"/>
<feBlend mode="normal" in="SourceGraphic" in2="effect1_dropShadow_547_8267" result="shape"/>
</filter>
</defs>
</svg>
