<svg xmlns="http://www.w3.org/2000/svg" width="225" height="37" viewBox="0 0 225 37" fill="none">
  <path d="M17.2618 14.4219C16.1179 13.728 14.8911 13.1811 13.6104 12.7941C12.2885 12.3919 11.0703 12.0033 9.95575 11.6283C8.98013 11.3186 8.04372 10.8968 7.1653 10.3713C6.8155 10.1708 6.52688 9.87885 6.33036 9.52678C6.13384 9.17471 6.03684 8.77579 6.04975 8.37279C6.04975 7.56414 6.43731 6.8194 7.21244 6.13855C7.98756 5.45769 9.07274 5.11622 10.468 5.11412C11.8632 5.11412 12.9494 5.48702 13.7266 6.23282C14.5038 6.97861 14.8914 8.00198 14.8893 9.30294H20.2314C20.2443 8.03619 20.0073 6.77933 19.5338 5.60434C19.0814 4.49081 18.4006 3.48453 17.5352 2.65049C16.6487 1.80165 15.6018 1.13822 14.4557 0.69906C13.1818 0.219077 11.8291 -0.0175565 10.468 0.00144837C9.01949 -0.0208909 7.57865 0.215347 6.21316 0.69906C5.04163 1.1155 3.95401 1.73806 3.00163 2.53736C2.13237 3.27147 1.43052 4.18333 0.943362 5.21154C0.471209 6.21496 0.228602 7.31098 0.233181 8.41992C0.233181 10.1273 0.606078 11.5005 1.35187 12.5396C2.09021 13.577 3.04157 14.4448 4.14232 15.0849C5.28913 15.7474 6.51634 16.2596 7.79378 16.609C9.1094 16.9798 10.3266 17.36 11.4452 17.7497C12.4279 18.0714 13.3657 18.517 14.2357 19.0758C14.5893 19.2959 14.8787 19.6052 15.0751 19.9725C15.2714 20.3398 15.3677 20.7523 15.3544 21.1686C15.3485 21.6406 15.2365 22.1051 15.0265 22.5278C14.8165 22.9505 14.514 23.3205 14.1414 23.6103C13.3349 24.3079 12.1093 24.6567 10.4648 24.6567C8.94599 24.6567 7.75188 24.2461 6.88249 23.4249C6.45339 23.0155 6.11587 22.5199 5.89218 21.9707C5.66849 21.4215 5.56368 20.8311 5.58468 20.2385H0.000643784C-0.0143088 21.5526 0.231341 22.8567 0.723395 24.0753C1.1899 25.2193 1.89602 26.2501 2.79423 27.0983C3.73701 27.9784 4.85341 28.6517 6.07175 29.0749C7.48604 29.5635 8.97499 29.8007 10.4711 29.7756C11.9686 29.795 13.4578 29.5503 14.8705 29.0529C16.0937 28.6217 17.2302 27.9758 18.2265 27.1455C19.1161 26.4049 19.8507 25.4962 20.3885 24.4713C20.8885 23.5249 21.1516 22.4715 21.1552 21.4012C21.1552 19.633 20.7834 18.198 20.0397 17.0961C19.3173 16.0149 18.3697 15.1027 17.2618 14.4219ZM42.0333 10.9998C41.1353 10.0337 40.0515 9.25886 38.8469 8.72159C37.648 8.18095 36.3472 7.90343 35.0321 7.90771C34.1796 7.8954 33.3307 8.02061 32.5181 8.27852C31.8618 8.49 31.2239 8.75484 30.6107 9.0704C30.0219 9.38878 29.4751 9.77936 28.983 10.2331V8.14968H24.0997V37H29.4417V27.6797C29.8926 28.0964 30.3928 28.4563 30.9312 28.7512C31.4966 29.0267 32.0817 29.2598 32.6815 29.4488C33.4438 29.6758 34.2369 29.7818 35.0321 29.7631C36.3474 29.7663 37.6482 29.4877 38.8469 28.946C40.0515 28.4088 41.1353 27.6339 42.0333 26.6678C42.9731 25.6609 43.7189 24.489 44.233 23.2112C44.7791 21.8248 45.0512 20.3457 45.0343 18.8558C45.0529 17.3503 44.7764 15.8557 44.2204 14.4565C43.7094 13.18 42.968 12.0083 42.0333 10.9998ZM38.1493 23.076C37.1375 24.0877 35.7653 24.656 34.3344 24.656C32.9036 24.656 31.5314 24.0877 30.5196 23.076C29.4952 22.0286 28.983 20.6177 28.983 18.8432C28.983 17.0688 29.4952 15.6569 30.5196 14.6073C31.5314 13.5956 32.9036 13.0273 34.3344 13.0273C35.7653 13.0273 37.1375 13.5956 38.1493 14.6073C39.1716 15.6548 39.6828 17.0667 39.6828 18.8432C39.6828 20.6197 39.1716 22.0307 38.1493 23.076ZM62.4306 8.14968V10.2331C61.927 9.79368 61.3818 9.40428 60.8028 9.0704C60.1897 8.75484 59.5517 8.49 58.8954 8.27852C58.0829 8.02023 57.234 7.89502 56.3815 7.90771C55.0663 7.90304 53.7654 8.18058 52.5666 8.72159C51.3631 9.25923 50.2805 10.0341 49.3834 10.9998C48.4421 12.0056 47.6962 13.1778 47.1837 14.4565C46.6305 15.8561 46.3583 17.351 46.3824 18.8558C46.3659 20.352 46.6424 21.8369 47.1963 23.2269C47.708 24.506 48.454 25.6783 49.3959 26.6835C50.294 27.6496 51.3777 28.4245 52.5823 28.9618C53.7809 29.5038 55.0818 29.7824 56.3972 29.7788C57.248 29.7905 58.0956 29.6729 58.9111 29.43C59.5755 29.2299 60.2153 28.9558 60.8185 28.6129C61.3982 28.2801 61.9435 27.8907 62.4463 27.4503V29.54H67.3327V8.14339L62.4306 8.14968ZM60.8971 23.076C59.8853 24.0877 58.5131 24.656 57.0822 24.656C55.6514 24.656 54.2792 24.0877 53.2674 23.076C52.2429 22.0286 51.7307 20.6177 51.7307 18.8432C51.7307 17.0688 52.2429 15.6569 53.2674 14.6073C54.2792 13.5956 55.6514 13.0273 57.0822 13.0273C58.5131 13.0273 59.8853 13.5956 60.8971 14.6073C61.9194 15.6548 62.4306 17.0667 62.4306 18.8432C62.4306 20.6197 61.9194 22.0307 60.8971 23.076ZM81.7029 7.95485C81.4875 7.92393 81.27 7.90922 81.0524 7.91086C80.3077 7.89714 79.5677 8.03062 78.8747 8.30365C78.3022 8.53312 77.7632 8.83858 77.2721 9.21181C76.7654 9.56592 76.3107 9.98898 75.9209 10.4688V8.14968H71.0376V29.54H76.3797V18.1425C76.3797 16.7473 76.7913 15.6233 77.6146 14.7707C78.0267 14.3464 78.5232 14.0134 79.0721 13.7931C79.621 13.5728 80.21 13.4701 80.801 13.4917C81.0574 13.4903 81.3135 13.5061 81.5678 13.5389C81.8003 13.5703 81.9951 13.6017 82.1491 13.63L82.6613 13.7243V8.14339L82.1963 8.04912L81.7029 7.95485ZM103.461 8.14339H97.6474L93.4586 14.887L89.2729 8.14339H83.4595L90.2031 18.6107L82.9944 29.5431H88.8078L93.4586 22.3313L98.1125 29.5431H103.926L96.7173 18.6107L103.461 8.14339ZM129.14 21.8662L119.138 0.233986H114.255V29.5431H119.836V13.2592L127.28 29.5431H131.001L138.445 13.2592V29.5431H144.026V0.233986H139.143L129.14 21.8662ZM177.939 3.02443H173.288V8.14968H169.335V13.0267H172.59V22.0988C172.574 23.1773 172.755 24.2498 173.125 25.2632C173.458 26.1583 173.964 26.9793 174.614 27.6797C175.246 28.3675 176.025 28.9044 176.892 29.2509C177.818 29.6167 178.807 29.7992 179.802 29.7882C180.421 29.793 181.036 29.7094 181.631 29.54C181.886 29.4845 182.135 29.4067 182.376 29.3074V24.6567C182.257 24.7174 182.131 24.7649 182.002 24.7981C181.864 24.8298 181.725 24.8529 181.584 24.8672C181.43 24.8829 181.229 24.8892 180.981 24.8892C180.575 24.9219 180.167 24.8661 179.786 24.7258C179.404 24.5855 179.057 24.364 178.769 24.0765C178.482 23.789 178.26 23.4425 178.119 23.0609C177.978 22.6793 177.922 22.2717 177.954 21.8662V13.0267H182.608V8.14339H177.939V3.02443ZM203.059 10.3525C202.347 9.56268 201.468 8.94209 200.485 8.53619C199.46 8.11437 198.361 7.90073 197.252 7.90771C196.326 7.88747 195.402 8.01367 194.515 8.28166C193.862 8.48408 193.231 8.74929 192.629 9.07354C192.098 9.39384 191.613 9.785 191.187 10.2362V0.233986H185.845V29.54H191.187V17.6774C191.187 16.2822 191.599 15.1583 192.422 14.3056C193.28 13.4851 194.421 13.0271 195.608 13.0271C196.796 13.0271 197.937 13.4851 198.795 14.3056C199.616 15.1604 200.027 16.2843 200.027 17.6774V29.54H205.369V16.9704C205.388 15.6859 205.175 14.4085 204.74 13.1995C204.364 12.1532 203.794 11.1873 203.059 10.3525ZM223.598 20.1662C223.068 19.3837 222.378 18.7227 221.574 18.2273C220.756 17.7253 219.872 17.3413 218.947 17.0866C218.002 16.8269 217.125 16.5797 216.317 16.345C215.619 16.1533 214.942 15.8955 214.293 15.5752C214.058 15.4827 213.856 15.3231 213.711 15.1163C213.566 14.9096 213.486 14.6648 213.479 14.4125C213.476 14.1299 213.535 13.8501 213.652 13.5927C213.768 13.3354 213.94 13.1068 214.155 12.923C214.686 12.4928 215.358 12.2775 216.04 12.3196C216.778 12.2961 217.498 12.5444 218.064 13.0172C218.528 13.3728 218.876 13.8585 219.063 14.4125H224.179C223.964 12.6151 223.094 10.9598 221.737 9.76173C220.359 8.51943 218.382 7.89933 215.808 7.90143C214.729 7.88278 213.656 8.0639 212.643 8.43564C211.76 8.76362 210.942 9.24323 210.224 9.85286C209.565 10.4155 209.037 11.1148 208.675 11.9022C208.314 12.6895 208.128 13.5461 208.131 14.4125C208.131 15.6548 208.402 16.6551 208.945 17.4135C209.482 18.1683 210.171 18.8021 210.968 19.2738C211.788 19.7601 212.673 20.1282 213.595 20.3673C214.54 20.6145 215.417 20.8554 216.226 21.0901C216.923 21.2808 217.601 21.5376 218.249 21.8568C218.484 21.9493 218.687 22.1089 218.831 22.3156C218.976 22.5224 219.057 22.7672 219.063 23.0195C219.053 23.3304 218.975 23.6354 218.835 23.9128C218.694 24.1903 218.494 24.4335 218.249 24.6253C217.604 25.0972 216.823 25.3495 216.024 25.345C215.224 25.3405 214.446 25.0794 213.806 24.6001C213.264 24.1337 212.901 23.4923 212.782 22.787H207.666C207.875 24.8944 208.705 26.5851 210.155 27.8588C211.604 29.1325 213.723 29.7714 216.512 29.7756C217.626 29.7867 218.733 29.6005 219.783 29.2257C220.692 28.9088 221.535 28.4285 222.272 27.8085C222.935 27.2361 223.47 26.5305 223.843 25.7377C224.214 24.9625 224.408 24.1146 224.412 23.2552C224.412 21.9856 224.14 20.956 223.598 20.1662ZM162.777 8.14968V10.2331C162.274 9.79295 161.728 9.4035 161.149 9.0704C160.536 8.75484 159.898 8.49 159.241 8.27852C158.429 8.02023 157.58 7.89502 156.728 7.90771C155.412 7.90304 154.111 8.18058 152.913 8.72159C151.708 9.25886 150.624 10.0337 149.726 10.9998C148.787 12.0072 148.041 13.179 147.527 14.4565C146.973 15.8561 146.701 17.351 146.725 18.8558C146.709 20.352 146.985 21.8369 147.539 23.2269C148.053 24.5047 148.799 25.6766 149.739 26.6835C150.637 27.6496 151.721 28.4245 152.925 28.9618C154.124 29.5038 155.425 29.7824 156.74 29.7788C157.591 29.7905 158.439 29.6729 159.254 29.43C159.918 29.2299 160.558 28.9558 161.161 28.6129C161.742 28.2809 162.287 27.8914 162.789 27.4503V29.54H167.676V8.14339L162.777 8.14968ZM161.243 23.076C160.231 24.0877 158.859 24.656 157.428 24.656C155.998 24.656 154.625 24.0877 153.613 23.076C152.589 22.0286 152.077 20.6177 152.077 18.8432C152.077 17.0688 152.589 15.6569 153.613 14.6073C154.625 13.5956 155.998 13.0273 157.428 13.0273C158.859 13.0273 160.231 13.5956 161.243 14.6073C162.266 15.6631 162.777 17.0793 162.777 18.8558C162.777 20.6323 162.264 22.0391 161.24 23.076H161.243Z" fill="#263352"/>
</svg>
