<svg xmlns="http://www.w3.org/2000/svg" width="331" height="56" viewBox="0 0 331 56" fill="none">
    <path d="M25.4203 21.9849C23.736 20.9631 21.9296 20.1578 20.0438 19.5881C18.0975 18.9959 16.3038 18.4237 14.6628 17.8716C13.2263 17.4156 11.8475 16.7945 10.5541 16.0208C10.0391 15.7255 9.6141 15.2957 9.32475 14.7773C9.03539 14.2589 8.89257 13.6715 8.91158 13.0781C8.91158 11.8875 9.48223 10.7909 10.6235 9.78842C11.7648 8.78593 13.3626 8.28314 15.417 8.28006C17.4713 8.28006 19.0707 8.82911 20.215 9.92722C21.3594 11.0253 21.9301 12.5322 21.927 14.4477H29.7927C29.8117 12.5825 29.4627 10.7319 28.7655 9.00185C28.0995 7.36228 27.097 5.88063 25.8228 4.65259C24.5175 3.40275 22.976 2.42592 21.2885 1.7793C19.4128 1.07257 17.4212 0.72415 15.417 0.752133C13.2842 0.71924 11.1627 1.06708 9.15218 1.7793C7.42722 2.39247 5.8258 3.30913 4.42352 4.48602C3.14361 5.56692 2.11021 6.90956 1.39292 8.42349C0.697716 9.90092 0.3405 11.5147 0.347243 13.1475C0.347243 15.6615 0.896298 17.6834 1.99441 19.2134C3.08154 20.7409 4.48233 22.0186 6.10307 22.9611C7.79164 23.9365 9.59859 24.6907 11.4795 25.2052C13.4166 25.7511 15.2088 26.311 16.8559 26.8847C18.3029 27.3584 19.6835 28.0145 20.9646 28.8372C21.4852 29.1614 21.9114 29.6168 22.2005 30.1576C22.4896 30.6984 22.6314 31.3058 22.6118 31.9187C22.6032 32.6136 22.4381 33.2977 22.129 33.9201C21.8198 34.5424 21.3744 35.0872 20.8258 35.5138C19.6382 36.541 17.8337 37.0546 15.4123 37.0546C13.176 37.0546 11.4178 36.45 10.1377 35.2408C9.5059 34.6381 9.00894 33.9084 8.67957 33.0998C8.3502 32.2911 8.19589 31.4218 8.22681 30.5492H0.00485416C-0.017162 32.4841 0.344533 34.4043 1.06903 36.1986C1.75592 37.883 2.79561 39.4007 4.11814 40.6497C5.5063 41.9455 7.15008 42.9369 8.94397 43.56C11.0264 44.2794 13.2187 44.6286 15.4216 44.5918C17.6265 44.6203 19.8193 44.26 21.8992 43.5276C23.7003 42.8927 25.3737 41.9417 26.8407 40.7191C28.1505 39.6287 29.2322 38.2907 30.024 36.7816C30.7602 35.3882 31.1475 33.8371 31.153 32.2611C31.153 29.6577 30.6054 27.5448 29.5104 25.9223C28.4467 24.3304 27.0515 22.9872 25.4203 21.9849ZM61.8939 16.9462C60.5717 15.5237 58.9759 14.3828 57.2023 13.5917C55.437 12.7957 53.5217 12.387 51.5852 12.3933C50.3301 12.3752 49.0802 12.5596 47.8837 12.9393C46.9173 13.2507 45.978 13.6407 45.0752 14.1053C44.2083 14.5741 43.4031 15.1492 42.6785 15.8172V12.7496H35.4883V55.2289H43.354V41.5056C44.0178 42.1192 44.7544 42.6491 45.5472 43.0834C46.3797 43.489 47.2411 43.8323 48.1243 44.1106C49.2467 44.4447 50.4145 44.6009 51.5852 44.5732C53.522 44.5779 55.4373 44.1678 57.2023 43.3703C58.9759 42.5792 60.5717 41.4382 61.8939 40.0158C63.2777 38.5332 64.3757 36.8077 65.1327 34.9262C65.9368 32.885 66.3375 30.7072 66.3126 28.5134C66.3399 26.2966 65.9328 24.096 65.1142 22.0357C64.3617 20.1562 63.2702 18.431 61.8939 16.9462ZM56.1751 34.7273C54.6853 36.2168 52.6648 37.0536 50.5581 37.0536C48.4513 37.0536 46.4309 36.2168 44.941 34.7273C43.4327 33.185 42.6785 31.1075 42.6785 28.4949C42.6785 25.8822 43.4327 23.8032 44.941 22.2578C46.4309 20.7683 48.4513 19.9315 50.5581 19.9315C52.6648 19.9315 54.6853 20.7683 56.1751 22.2578C57.6804 23.8001 58.433 25.8791 58.433 28.4949C58.433 31.1106 57.6804 33.1881 56.1751 34.7273ZM91.9269 12.7496V15.8172C91.1854 15.1702 90.3827 14.5969 89.5302 14.1053C88.6274 13.6407 87.6881 13.2507 86.7217 12.9393C85.5254 12.559 84.2754 12.3746 83.0202 12.3933C81.0837 12.3865 79.1683 12.7951 77.4032 13.5917C75.6312 14.3833 74.037 15.5242 72.7162 16.9462C71.3302 18.4271 70.2319 20.153 69.4773 22.0357C68.6629 24.0966 68.262 26.2977 68.2975 28.5134C68.2732 30.7163 68.6803 32.9028 69.4959 34.9494C70.2493 36.8327 71.3477 38.5588 72.7347 40.0389C74.0569 41.4614 75.6526 42.6023 77.4263 43.3934C79.1911 44.1914 81.1065 44.6017 83.0433 44.5964C84.2961 44.6136 85.5441 44.4404 86.7448 44.0828C87.7231 43.7881 88.6651 43.3846 89.5533 42.8798C90.4069 42.3898 91.2097 41.8163 91.9501 41.1679V44.2447H99.1449V12.7404L91.9269 12.7496ZM89.669 34.7273C88.1792 36.2168 86.1587 37.0536 84.052 37.0536C81.9453 37.0536 79.9248 36.2168 78.435 34.7273C76.9266 33.185 76.1724 31.1075 76.1724 28.4949C76.1724 25.8822 76.9266 23.8032 78.435 22.2578C79.9248 20.7683 81.9453 19.9315 84.052 19.9315C86.1587 19.9315 88.1792 20.7683 89.669 22.2578C91.1743 23.8001 91.9269 25.8791 91.9269 28.4949C91.9269 31.1106 91.1743 33.1881 89.669 34.7273ZM120.304 12.4627C119.986 12.4172 119.666 12.3956 119.346 12.398C118.249 12.3778 117.16 12.5743 116.139 12.9763C115.296 13.3142 114.503 13.764 113.78 14.3135C113.034 14.8349 112.364 15.4578 111.79 16.1642V12.7496H104.6V44.2447H112.466V27.4631C112.466 25.4087 113.072 23.7539 114.284 22.4984C114.891 21.8738 115.622 21.3834 116.43 21.059C117.238 20.7346 118.105 20.5835 118.976 20.6153C119.353 20.6132 119.73 20.6364 120.105 20.6847C120.447 20.731 120.734 20.7772 120.961 20.8189L121.715 20.9577V12.7404L121.03 12.6016L120.304 12.4627ZM152.34 12.7404H143.78L137.613 22.6696L131.45 12.7404H122.89L132.819 28.1525L122.205 44.2494H130.765L137.613 33.6307L144.465 44.2494H153.025L142.411 28.1525L152.34 12.7404ZM190.151 32.9459L175.423 1.09452H168.233V44.2494H176.451V20.2729L187.412 44.2494H192.89L203.851 20.2729V44.2494H212.068V1.09452H204.878L190.151 32.9459ZM262.002 5.20318H255.154V12.7496H249.333V19.9305H254.127V33.2883C254.102 34.8764 254.369 36.4555 254.913 37.9476C255.405 39.2656 256.15 40.4744 257.106 41.5056C258.037 42.5183 259.183 43.309 260.461 43.8191C261.824 44.3578 263.279 44.6265 264.745 44.6103C265.656 44.6173 266.562 44.4942 267.438 44.2447C267.813 44.1631 268.18 44.0485 268.535 43.9023V37.0546C268.359 37.144 268.175 37.2139 267.984 37.2628C267.781 37.3095 267.576 37.3434 267.369 37.3646C267.142 37.3877 266.846 37.397 266.48 37.397C265.883 37.4451 265.283 37.363 264.721 37.1564C264.159 36.9498 263.648 36.6236 263.225 36.2003C262.801 35.7771 262.474 35.2669 262.267 34.705C262.06 34.1431 261.977 33.5429 262.025 32.9459V19.9305H268.877V12.7404H262.002V5.20318ZM298.989 15.9931C297.941 14.8301 296.646 13.9164 295.199 13.3187C293.689 12.6976 292.071 12.3831 290.438 12.3933C289.074 12.3635 287.714 12.5494 286.408 12.9439C285.447 13.242 284.518 13.6325 283.632 14.1099C282.85 14.5815 282.135 15.1575 281.508 15.8219V1.09452H273.643V44.2447H281.508V26.7783C281.508 24.724 282.115 23.0691 283.327 21.8137C284.59 20.6055 286.271 19.9312 288.018 19.9312C289.766 19.9312 291.447 20.6055 292.71 21.8137C293.919 23.0722 294.524 24.727 294.524 26.7783V44.2447H302.389V25.7372C302.417 23.8459 302.104 21.9651 301.464 20.185C300.91 18.6444 300.07 17.2222 298.989 15.9931ZM329.23 30.4428C328.451 29.2906 327.435 28.3174 326.25 27.588C325.046 26.8489 323.744 26.2834 322.382 25.9084C320.991 25.526 319.7 25.162 318.51 24.8165C317.483 24.5342 316.485 24.1546 315.53 23.6829C315.184 23.5467 314.886 23.3118 314.673 23.0074C314.46 22.7029 314.341 22.3425 314.331 21.971C314.327 21.5549 314.414 21.1429 314.585 20.764C314.757 20.3851 315.01 20.0484 315.326 19.7778C316.108 19.1445 317.098 18.8275 318.102 18.8895C319.188 18.8548 320.248 19.2204 321.082 19.9166C321.766 20.4401 322.278 21.1553 322.553 21.971H330.086C329.769 19.3245 328.489 16.8872 326.491 15.1232C324.461 13.294 321.551 12.381 317.76 12.3841C316.172 12.3566 314.592 12.6233 313.101 13.1707C311.801 13.6536 310.595 14.3598 309.538 15.2574C308.568 16.0858 307.79 17.1155 307.258 18.2748C306.726 19.4341 306.452 20.6954 306.457 21.971C306.457 23.8001 306.856 25.273 307.655 26.3896C308.446 27.5011 309.461 28.4342 310.635 29.1287C311.842 29.8448 313.144 30.3869 314.503 30.7389C315.894 31.1029 317.185 31.4576 318.375 31.8031C319.402 32.084 320.4 32.462 321.355 32.932C321.701 33.0682 321.999 33.3032 322.212 33.6076C322.425 33.912 322.544 34.2725 322.553 34.644C322.539 35.1018 322.424 35.5508 322.217 35.9594C322.01 36.3679 321.716 36.726 321.355 37.0083C320.404 37.7032 319.255 38.0747 318.078 38.068C316.9 38.0614 315.756 37.6769 314.813 36.9713C314.014 36.2846 313.48 35.3402 313.304 34.3016H305.772C306.08 37.4047 307.302 39.8939 309.436 41.7694C311.571 43.6448 314.691 44.5856 318.796 44.5918C320.437 44.6081 322.068 44.3339 323.613 43.7821C324.951 43.3154 326.193 42.6082 327.277 41.6953C328.254 40.8525 329.042 39.8136 329.591 38.6462C330.137 37.5049 330.423 36.2564 330.428 34.991C330.428 33.1217 330.029 31.6057 329.23 30.4428ZM239.677 12.7496V15.8172C238.936 15.1692 238.133 14.5958 237.28 14.1053C236.377 13.6407 235.438 13.2507 234.472 12.9393C233.275 12.559 232.025 12.3746 230.77 12.3933C228.834 12.3865 226.918 12.7951 225.153 13.5917C223.379 14.3828 221.784 15.5237 220.461 16.9462C219.079 18.4295 217.981 20.1548 217.223 22.0357C216.408 24.0966 216.007 26.2977 216.043 28.5134C216.019 30.7163 216.426 32.9028 217.241 34.9494C217.998 36.8308 219.096 38.5563 220.48 40.0389C221.802 41.4614 223.398 42.6023 225.172 43.3934C226.936 44.1914 228.852 44.6017 230.789 44.5964C232.041 44.6136 233.289 44.4404 234.49 44.0828C235.468 43.7881 236.41 43.3846 237.299 42.8798C238.153 42.3909 238.956 41.8174 239.695 41.1679V44.2447H246.89V12.7404L239.677 12.7496ZM237.419 34.7273C235.929 36.2168 233.909 37.0536 231.802 37.0536C229.695 37.0536 227.675 36.2168 226.185 34.7273C224.677 33.185 223.922 31.1075 223.922 28.4949C223.922 25.8822 224.677 23.8032 226.185 22.2578C227.675 20.7683 229.695 19.9315 231.802 19.9315C233.909 19.9315 235.929 20.7683 237.419 22.2578C238.924 23.8125 239.677 25.8976 239.677 28.5134C239.677 31.1291 238.923 33.2004 237.414 34.7273H237.419Z" fill="#263352"/>
</svg>
